<?xml version="1.0" encoding="iso-8859-1"?>
<!-- Generator: Adobe Illustrator 19.1.0, SVG Export Plug-In . SVG Version: 6.00 Build 0)  -->
<svg version="1.1" id="Layer_1" xmlns="http://www.w3.org/2000/svg" xmlns:xlink="http://www.w3.org/1999/xlink" x="0px" y="0px"
	 viewBox="0 0 300 36.618" style="enable-background:new 0 0 300 36.618;" xml:space="preserve">
<path style="fill:#FFFFFF;" d="M292.933,36.049c0.253-2.182,0.427-4.364,0.522-6.546c0.095-2.182,0.142-4.364,0.142-6.546
	c0-0.854-0.016-1.739-0.047-2.656c-0.032-0.917-0.19-1.755-0.474-2.514c-0.285-0.759-0.735-1.383-1.352-1.874
	c-0.617-0.49-1.494-0.735-2.633-0.735c-1.297,0-2.317,0.269-3.059,0.806c-0.743,0.538-1.304,1.226-1.684,2.063
	c-0.379,0.838-0.625,1.771-0.735,2.799c-0.111,1.028-0.166,2.048-0.166,3.059c0,2.056,0.031,4.087,0.095,6.095
	c0.063,2.008,0.205,4.024,0.427,6.048h-7.02c0.253-3.004,0.451-6,0.593-8.988c0.142-2.988,0.213-5.984,0.213-8.988
	c0-3.036-0.032-6.055-0.095-9.06c-0.064-3.004-0.269-6.008-0.617-9.012h7.067c-0.253,2.246-0.396,4.482-0.427,6.712
	c-0.032,2.229-0.079,4.482-0.142,6.759c-0.032,0.316-0.047,0.633-0.047,0.949c0,0.316,0,0.648,0,0.996l2.182-3.036
	c1.865-0.854,3.795-1.281,5.787-1.281c1.233,0,2.348,0.135,3.344,0.403c0.996,0.269,1.842,0.688,2.538,1.257
	c0.695,0.569,1.225,1.313,1.589,2.229c0.363,0.918,0.545,2.024,0.545,3.32c0,1.233-0.024,2.466-0.071,3.7
	c-0.048,1.233-0.071,2.466-0.071,3.7c0,1.739,0.063,3.471,0.19,5.194c0.126,1.724,0.285,3.439,0.474,5.146H292.933z M267.642,36.333
	c-0.095,0.031-0.269,0.063-0.522,0.095c-0.254,0.031-0.53,0.055-0.83,0.071c-0.301,0.016-0.586,0.031-0.854,0.047
	c-0.269,0.016-0.467,0.024-0.593,0.024c-1.802,0-3.447-0.277-4.933-0.83c-1.487-0.553-2.759-1.352-3.818-2.395
	c-1.06-1.044-1.882-2.292-2.466-3.747c-0.585-1.454-0.878-3.083-0.878-4.886c0-2.023,0.348-3.873,1.044-5.55
	c0.695-1.676,1.668-3.107,2.917-4.293c1.249-1.186,2.727-2.111,4.435-2.775c1.707-0.664,3.573-0.996,5.597-0.996
	c1.17,0,2.34,0.119,3.51,0.356c1.169,0.237,2.245,0.688,3.225,1.352l-1.186,5.976h-0.711c-0.633-1.423-1.518-2.585-2.656-3.486
	c-1.138-0.901-2.53-1.352-4.174-1.352c-1.075,0-2.008,0.222-2.799,0.664c-0.791,0.443-1.447,1.028-1.969,1.755
	c-0.522,0.728-0.909,1.542-1.162,2.443c-0.253,0.901-0.379,1.826-0.379,2.775c0,1.328,0.166,2.649,0.498,3.961
	c0.332,1.313,0.854,2.49,1.565,3.534c0.711,1.044,1.62,1.89,2.727,2.538c1.106,0.648,2.419,0.972,3.937,0.972
	c1.107,0,2.189-0.134,3.249-0.403c1.059-0.268,2.111-0.561,3.154-0.878l0.379,2.277L267.642,36.333z M251.486,17.597
	c-0.601-0.379-1.162-0.688-1.684-0.925c-0.522-0.237-1.147-0.356-1.874-0.356c-1.138,0-2.04,0.293-2.704,0.877
	c-0.664,0.586-1.17,1.313-1.518,2.182c-0.348,0.87-0.569,1.811-0.664,2.822c-0.095,1.012-0.142,1.945-0.142,2.799
	c0,1.834,0.055,3.676,0.166,5.526c0.11,1.85,0.276,3.692,0.498,5.526h-7.115c0.253-2.055,0.427-4.087,0.522-6.095
	c0.095-2.008,0.142-4.055,0.142-6.142c0-2.055-0.047-4.095-0.142-6.119c-0.095-2.023-0.269-4.063-0.522-6.119h6.451l-0.142,5.123
	l2.609-4.269c0.759-0.379,1.494-0.671,2.206-0.877c0.711-0.205,1.494-0.308,2.348-0.308c0.411,0,0.774,0.024,1.091,0.071
	c0.316,0.047,0.664,0.15,1.043,0.308L251.486,17.597z M225.209,24.333c-0.538,0.095-1.075,0.198-1.613,0.308
	c-0.538,0.111-1.075,0.213-1.613,0.308c-0.569,0.095-1.146,0.213-1.731,0.356c-0.586,0.142-1.107,0.348-1.565,0.617
	c-0.459,0.269-0.83,0.617-1.115,1.044s-0.427,1.004-0.427,1.731c0,1.202,0.308,2.134,0.925,2.799
	c0.617,0.664,1.525,0.996,2.727,0.996c0.822,0,1.51-0.15,2.063-0.451c0.553-0.3,1.004-0.695,1.352-1.186
	c0.348-0.49,0.6-1.067,0.759-1.731c0.158-0.664,0.237-1.359,0.237-2.087V24.333z M225.351,36.049l-0.047-3.225l-2.419,2.893
	c-0.791,0.316-1.526,0.537-2.206,0.664c-0.68,0.126-1.447,0.19-2.3,0.19c-2.246,0-4.032-0.631-5.36-1.893
	c-1.328-1.262-1.992-3.03-1.992-5.302c0-2.083,0.522-3.613,1.565-4.591c1.044-0.978,2.561-1.593,4.553-1.846l8.064-1.041v-2.414
	c0-0.694-0.04-1.38-0.119-2.059c-0.079-0.678-0.253-1.278-0.522-1.799c-0.269-0.52-0.657-0.938-1.162-1.254
	c-0.506-0.316-1.186-0.474-2.04-0.474c-0.823,0-1.597,0.15-2.324,0.451c-0.728,0.301-1.392,0.696-1.992,1.186
	c-0.601,0.491-1.131,1.06-1.589,1.708c-0.459,0.649-0.862,1.321-1.21,2.016h-0.901l-1.233-6.036c1.423-0.74,2.98-1.271,4.672-1.593
	c1.691-0.322,3.344-0.482,4.957-0.482c0.695,0,1.423,0.032,2.182,0.095c0.759,0.064,1.51,0.198,2.253,0.403
	c0.743,0.206,1.43,0.491,2.063,0.854c0.632,0.364,1.169,0.846,1.613,1.447c0.537,0.728,0.885,1.487,1.044,2.277
	c0.158,0.791,0.237,1.613,0.237,2.466c0,1.075-0.024,2.134-0.071,3.178c-0.047,1.044-0.071,2.103-0.071,3.178
	c0,1.423,0.039,2.822,0.119,4.198c0.079,1.376,0.182,2.775,0.308,4.198c0.031,0.886,0.126,1.755,0.285,2.609H225.351z
	 M202.38,18.024c-0.127-0.822-0.364-1.557-0.711-2.206c-0.348-0.648-0.838-1.162-1.47-1.542c-0.633-0.379-1.47-0.569-2.514-0.569
	c-0.981,0-1.802,0.222-2.466,0.664c-0.664,0.443-1.202,1.012-1.613,1.708c-0.411,0.696-0.704,1.47-0.878,2.324
	c-0.174,0.854-0.261,1.692-0.261,2.514l10.103-0.379C202.57,19.684,202.506,18.847,202.38,18.024z M206.317,13.85
	c1.518,1.834,2.277,4.475,2.277,7.921c0,0.285-0.008,0.569-0.024,0.854c-0.016,0.285-0.04,0.569-0.071,0.854l-15.937-0.095
	c0.063,2.751,0.838,4.98,2.324,6.688c1.486,1.708,3.652,2.561,6.498,2.561c1.138,0,2.26-0.15,3.368-0.451
	c1.106-0.3,2.213-0.609,3.32-0.925l0.379,2.372l-6.641,2.704c-0.095,0.031-0.301,0.063-0.617,0.095
	c-0.316,0.031-0.664,0.063-1.044,0.095c-0.379,0.031-0.743,0.055-1.091,0.071c-0.348,0.016-0.586,0.024-0.711,0.024
	c-1.897,0-3.597-0.308-5.099-0.925c-1.502-0.617-2.775-1.47-3.818-2.561c-1.044-1.091-1.85-2.395-2.419-3.913
	c-0.569-1.518-0.854-3.194-0.854-5.028c0-1.897,0.285-3.644,0.854-5.241c0.569-1.596,1.383-2.972,2.443-4.127
	c1.059-1.154,2.363-2.063,3.913-2.727c1.549-0.664,3.32-0.996,5.312-0.996C202.253,11.099,204.799,12.017,206.317,13.85z
	 M183.355,32.467c-0.585,0.965-1.352,1.755-2.3,2.372c-0.949,0.617-2.024,1.06-3.225,1.328c-1.202,0.268-2.419,0.403-3.652,0.403
	c-1.423,0-2.783-0.135-4.079-0.403c-1.297-0.268-2.561-0.735-3.795-1.399l0.759-5.834h0.806c0.316,0.633,0.68,1.25,1.091,1.85
	c0.411,0.601,0.893,1.131,1.447,1.589c0.553,0.459,1.169,0.83,1.85,1.115c0.68,0.285,1.447,0.427,2.3,0.427
	c1.012,0,1.874-0.268,2.585-0.806c0.711-0.537,1.067-1.344,1.067-2.419c0-1.106-0.285-1.96-0.854-2.561
	c-0.569-0.6-1.289-1.098-2.158-1.494c-0.87-0.395-1.811-0.751-2.822-1.067c-1.012-0.316-1.953-0.743-2.822-1.281
	c-0.87-0.537-1.589-1.257-2.158-2.158s-0.854-2.126-0.854-3.676c0-1.391,0.285-2.553,0.854-3.486
	c0.569-0.932,1.32-1.684,2.253-2.253c0.932-0.569,1.984-0.98,3.154-1.233c1.17-0.253,2.34-0.379,3.51-0.379
	c2.308,0,4.474,0.411,6.498,1.233l-0.949,5.882h-0.854c-0.222-0.569-0.491-1.115-0.806-1.636c-0.317-0.522-0.688-0.996-1.115-1.423
	c-0.427-0.427-0.909-0.766-1.447-1.02c-0.538-0.253-1.138-0.379-1.802-0.379c-0.918,0-1.676,0.253-2.277,0.759
	c-0.601,0.506-0.901,1.233-0.901,2.182c0,1.107,0.285,1.953,0.854,2.538c0.569,0.586,1.281,1.067,2.135,1.447
	c0.854,0.379,1.786,0.728,2.799,1.044c1.012,0.316,1.945,0.743,2.799,1.281c0.854,0.538,1.565,1.257,2.134,2.158
	c0.569,0.901,0.854,2.143,0.854,3.723C184.232,30.309,183.939,31.503,183.355,32.467z M157.661,18.024
	c-0.127-0.822-0.364-1.557-0.711-2.206c-0.348-0.648-0.838-1.162-1.47-1.542c-0.633-0.379-1.47-0.569-2.514-0.569
	c-0.981,0-1.802,0.222-2.467,0.664c-0.664,0.443-1.202,1.012-1.613,1.708c-0.411,0.696-0.704,1.47-0.877,2.324
	c-0.174,0.854-0.261,1.692-0.261,2.514l10.103-0.379C157.85,19.684,157.787,18.847,157.661,18.024z M161.597,13.85
	c1.518,1.834,2.277,4.475,2.277,7.921c0,0.285-0.008,0.569-0.024,0.854c-0.016,0.285-0.04,0.569-0.071,0.854l-15.937-0.095
	c0.063,2.751,0.837,4.98,2.324,6.688c1.486,1.708,3.652,2.561,6.498,2.561c1.138,0,2.26-0.15,3.368-0.451
	c1.107-0.3,2.213-0.609,3.32-0.925l0.379,2.372l-6.641,2.704c-0.095,0.031-0.301,0.063-0.617,0.095
	c-0.316,0.031-0.664,0.063-1.043,0.095c-0.379,0.031-0.743,0.055-1.091,0.071c-0.348,0.016-0.585,0.024-0.711,0.024
	c-1.897,0-3.597-0.308-5.099-0.925c-1.502-0.617-2.775-1.47-3.818-2.561c-1.044-1.091-1.85-2.395-2.419-3.913
	c-0.569-1.518-0.854-3.194-0.854-5.028c0-1.897,0.285-3.644,0.854-5.241c0.569-1.596,1.383-2.972,2.443-4.127
	c1.059-1.154,2.363-2.063,3.913-2.727c1.549-0.664,3.32-0.996,5.312-0.996C157.534,11.099,160.08,12.017,161.597,13.85z
	 M129.808,8.135c-1.075-0.964-2.673-1.447-4.791-1.447h-2.561v13.755c0.316,0.064,0.617,0.095,0.901,0.095c0.285,0,0.585,0,0.901,0
	c1.138,0,2.158-0.19,3.059-0.569c0.901-0.379,1.652-0.917,2.253-1.613c0.6-0.695,1.059-1.51,1.376-2.443
	c0.316-0.932,0.474-1.952,0.474-3.059C131.421,10.672,130.883,9.1,129.808,8.135z M132.939,36.049
	c-1.012-1.834-2.082-3.629-3.208-5.384c-1.127-1.755-2.327-3.47-3.6-5.146c-0.319-0.411-0.597-0.719-0.835-0.925
	c-0.239-0.205-0.485-0.356-0.74-0.451c-0.255-0.095-0.557-0.142-0.906-0.142c-0.319,0-0.716,0-1.193,0
	c0.063,2.024,0.134,4.04,0.213,6.048c0.079,2.008,0.229,4.008,0.451,6h-7.589c0.285-2.751,0.474-5.486,0.569-8.206
	c0.095-2.719,0.142-5.455,0.142-8.206c0-2.782-0.032-5.533-0.095-8.253c-0.064-2.719-0.269-5.455-0.617-8.206h11.289
	c1.486,0,2.924,0.103,4.316,0.308c1.391,0.206,2.64,0.617,3.747,1.233c1.107,0.617,1.992,1.47,2.656,2.561s0.996,2.538,0.996,4.34
	c0,2.593-0.767,4.783-2.3,6.569c-1.534,1.787-3.534,2.981-6,3.581c0.474,0.159,0.917,0.403,1.328,0.735
	c0.411,0.332,0.79,0.696,1.138,1.091c0.348,0.396,0.671,0.815,0.972,1.257c0.3,0.443,0.577,0.854,0.83,1.233
	c1.17,1.708,2.363,3.376,3.581,5.004c1.217,1.629,2.426,3.281,3.629,4.957H132.939z M80.478,10.435L75.877,22.53h9.249
	L80.478,10.435z M89.917,36.049c-0.569-1.897-1.147-3.62-1.731-5.17c-0.586-1.549-1.21-3.178-1.874-4.886H74.739
	c-0.633,1.676-1.233,3.32-1.802,4.933c-0.569,1.613-1.123,3.32-1.66,5.123h-5.692c2.593-5.344,5.099-10.759,7.518-16.246
	c2.419-5.486,4.64-11.028,6.664-16.625h4.791c2.055,5.597,4.237,11.131,6.546,16.601c2.308,5.471,4.791,10.894,7.447,16.269H89.917z
	 M62.739,13.02c-0.047,3.305-0.071,6.617-0.071,9.937c0,1.992,0.031,3.977,0.095,5.953c0.063,1.977,0.095,3.961,0.095,5.953v1.186
	H59.3c-1.708-1.96-3.391-3.937-5.052-5.929c-1.66-1.992-3.32-3.984-4.98-5.976s-3.337-3.976-5.028-5.953
	c-1.692-1.976-3.439-3.897-5.241-5.763c-0.064,0.823-0.111,1.621-0.142,2.395c-0.032,0.775-0.047,1.573-0.047,2.395
	c0,3.162,0.078,6.301,0.237,9.415c0.158,3.115,0.379,6.254,0.664,9.415h-5.123c0.316-3.004,0.514-6,0.593-8.988
	c0.079-2.988,0.119-5.984,0.119-8.988c0-2.498-0.04-4.98-0.119-7.447c-0.079-2.466-0.213-4.949-0.403-7.447h5.645
	c1.454,1.834,2.917,3.637,4.387,5.407c1.47,1.771,2.965,3.557,4.482,5.36c1.613,1.929,3.233,3.826,4.862,5.692
	c1.628,1.866,3.297,3.7,5.004,5.502c0-3.131-0.047-6.253-0.142-9.368c-0.095-3.114-0.269-6.237-0.522-9.368
	c-0.032-0.537-0.079-1.075-0.142-1.613c-0.064-0.537-0.111-1.075-0.142-1.613h5.217C63.015,6.435,62.786,9.716,62.739,13.02z
	 M20.965,9.753c-1.929-2.265-4.933-3.397-9.012-3.397h-4.98v14.445c0,1.046,0,2.091,0,3.136c0,1.014,0.016,2.028,0.047,3.041
	c0.031,0.539,0.055,1.085,0.071,1.639c0.016,0.554,0.055,1.101,0.119,1.639c0.095,0.697,0.276,1.244,0.545,1.639
	c0.268,0.396,0.609,0.689,1.02,0.879c0.411,0.19,0.869,0.302,1.376,0.333c0.505,0.032,1.059,0.047,1.66,0.047
	c2.055,0,3.842-0.379,5.36-1.14c1.518-0.76,2.775-1.782,3.771-3.065c0.996-1.283,1.731-2.772,2.206-4.467
	c0.474-1.694,0.711-3.492,0.711-5.393C23.858,15.131,22.894,12.018,20.965,9.753z M4.767,36.286
	c-1.565-0.095-3.107-0.363-4.625-0.806c0.285-2.561,0.458-5.115,0.522-7.66c0.063-2.545,0.095-5.099,0.095-7.66
	c0-2.877-0.04-5.716-0.118-8.514C0.561,8.846,0.348,6.024,0,3.178h12.854c2.435,0,4.743,0.19,6.925,0.569
	c2.182,0.379,4.095,1.084,5.739,2.111c1.644,1.028,2.956,2.443,3.937,4.245c0.98,1.802,1.47,4.111,1.47,6.925
	c0,3.225-0.545,6.056-1.636,8.49c-1.091,2.435-2.601,4.459-4.53,6.071c-1.929,1.613-4.206,2.822-6.83,3.629
	c-2.625,0.806-5.455,1.21-8.49,1.21C7.889,36.428,6.332,36.381,4.767,36.286z"/>
</svg>
