<?xml version="1.0" encoding="utf-8"?>
<!-- Generator: Adobe Illustrator 19.1.0, SVG Export Plug-In . SVG Version: 6.00 Build 0)  -->
<svg version="1.1" id="Layer_1" xmlns="http://www.w3.org/2000/svg" xmlns:xlink="http://www.w3.org/1999/xlink" x="0px" y="0px"
	 viewBox="0 0 300 40.7" style="enable-background:new 0 0 300 40.7;" xml:space="preserve">
<style type="text/css">
	.st0{fill:#FFFFFF;}
</style>
<path class="st0" d="M23,29.9C12.2,21.7,12.2,16.3,23,8C33.8,16.3,33.8,21.7,23,29.9z"/>
<g>
	<path class="st0" d="M21.9,31.2C13.7,41.9,8.3,41.9,0,31.2C8.3,20.5,13.7,20.5,21.9,31.2z"/>
</g>
<g>
	<path class="st0" d="M24.2,31.2c8.2-10.7,13.6-10.7,21.9,0C37.8,41.8,32.4,41.8,24.2,31.2z"/>
</g>
<g>
	<path class="st0" d="M64.1,0h3.7l-5.3,18.5l5.8,21.9h-3.7l-5-20.3h-0.1v20.3h-3.7V0h3.7v17.3h0.1L64.1,0z"/>
	<path class="st0" d="M77.7,14.9c0-1.8-0.6-2.6-2-2.6c-2,0-2.2,1.2-2.2,3v2.9h-3.5v-3.6c0-3.1,2.6-5,5.8-5c3.4,0,5.4,1.4,5.4,5.3
		v25.5h-3.2v-1.6h-0.1c-1,1.2-2,2-4,2c-2.7,0-4.1-2-4.1-5v-8.3c0-3.8,2.6-5.9,8.1-5.9V14.9z M77.7,24.3c-1.8,0-4.6,0.7-4.6,3.3v6.9
		c0,2.2,0.3,3.4,2.2,3.4c1.5,0,2.4-1.1,2.4-3.1V24.3z"/>
	<path class="st0" d="M88.6,12.7h-5.5V9.9h9v3l-6,24.7h6.2v2.8h-9.4v-4L88.6,12.7z"/>
	<path class="st0" d="M105.3,40.4H102v-2.1h-0.1c-0.8,1.3-2.2,2.4-4,2.4c-2.9,0-4.1-2.1-4.1-4.6V9.9h3.5v24.9c0,1.6,0.6,2.8,2.2,2.8
		c1.6,0,2.4-1.6,2.4-2.8V9.9h3.5V40.4z"/>
	<path class="st0" d="M114.4,14.4c0-1.4-0.7-2.1-1.8-2.1c-1.4,0-1.8,1-1.8,2.2V18c0,0.9,0.4,1.7,1.3,3l4.4,6.1
		c0.8,1.2,1.2,2,1.2,3.4v5.1c0,3.3-1.8,5.1-5.2,5.1c-2.9,0-5.1-1.3-5.1-4.8v-5.3h3.5v4.7c0,1.4,0.2,2.6,1.7,2.6
		c1.4,0,1.7-1.2,1.7-2.6v-3.7c0-1.1-0.4-2.2-1.3-3.4l-4-5.4c-1-1.3-1.6-2.4-1.6-4.1v-3.9c0-3.4,2.3-5.3,5.4-5.3
		c3.7,0,4.9,2.5,4.9,4.4v5h-3.2V14.4z"/>
	<path class="st0" d="M127.9,14.9c0-1.8-0.6-2.6-2-2.6c-2,0-2.2,1.2-2.2,3v2.9h-3.5v-3.6c0-3.1,2.6-5,5.8-5c3.4,0,5.4,1.4,5.4,5.3
		v25.5h-3.2v-1.6H128c-1,1.2-2,2-4,2c-2.7,0-4.1-2-4.1-5v-8.3c0-3.8,2.6-5.9,8.1-5.9V14.9z M127.9,24.3c-1.8,0-4.6,0.7-4.6,3.3v6.9
		c0,2.2,0.3,3.4,2.2,3.4c1.5,0,2.4-1.1,2.4-3.1V24.3z"/>
	<path class="st0" d="M141.3,0h6.3c5,0,6.3,2.6,6.3,6.5v27.3c0,4-1.2,6.5-6.3,6.5h-6.3V0z M147,37.3c2.5,0,3.2-0.8,3.2-3.1V6.3
		c0-2.3-0.8-3.1-3.2-3.1h-2v34.1H147z"/>
	<path class="st0" d="M167.6,0h3.2v40.4h-5.3L161,4.5h-0.1v35.9h-3.2V0h5.4l4.5,34.6h0.1V0z"/>
	<path class="st0" d="M185.2,29.2h-6.5l-1.5,11.2h-3.7L179.4,0h5l5.9,40.4h-3.7L185.2,29.2z M182,2.8h-0.1l-2.8,23.3h5.7L182,2.8z"
		/>
	<path class="st0" d="M208.1,23.4c0-2-1.2-2.5-2.9-2.5h-2.5v19.4H199V0h6.9c3.5,0,5.7,0.6,5.7,4.6v10.2c0,3.1-1.2,4.2-4,4.4v0.1
		c2.6,0.2,4.2,1,4.2,3.7v17.3h-3.7V23.4z M205.2,17.8c1.7,0,2.7-0.5,2.7-2.9V5.9c0-2.3-1.2-2.7-3.1-2.7h-2.1v14.7H205.2z"/>
	<path class="st0" d="M222.8,30.5h3.5v4.3c0,4.6-2.8,5.9-5.8,5.9c-3,0-5.8-1.2-5.8-5.9V15.4c0-4.6,2.8-5.9,5.8-5.9
		c3,0,5.8,1.2,5.8,5.9V26h-8.1v8.8c0,2.2,0.9,3.1,2.3,3.1c1.4,0,2.3-0.8,2.3-3.1V30.5z M222.8,15.4c0-2.2-0.9-3.1-2.3-3.1
		c-1.4,0-2.3,0.8-2.3,3.1v7.4h4.6V15.4z"/>
	<path class="st0" d="M235.4,14.4c0-1.4-0.7-2.1-1.8-2.1c-1.4,0-1.8,1-1.8,2.2V18c0,0.9,0.4,1.7,1.3,3l4.4,6.1
		c0.8,1.2,1.2,2,1.2,3.4v5.1c0,3.3-1.8,5.1-5.2,5.1c-2.9,0-5.1-1.3-5.1-4.8v-5.3h3.5v4.7c0,1.4,0.2,2.6,1.7,2.6
		c1.4,0,1.7-1.2,1.7-2.6v-3.7c0-1.1-0.4-2.2-1.3-3.4l-4-5.4c-1-1.3-1.6-2.4-1.6-4.1v-3.9c0-3.4,2.3-5.3,5.4-5.3
		c3.7,0,4.9,2.5,4.9,4.4v5h-3.2V14.4z"/>
	<path class="st0" d="M241.2,36.1h3.7v4.3h-3.7V36.1z"/>
	<path class="st0" d="M254.7,0h3.7v40.4h-3.7V0z"/>
	<path class="st0" d="M261.2,9.9h3.2V12h0.1c0.8-1.3,2.2-2.4,4-2.4c2.9,0,4.1,2.1,4.1,4.6v26.2h-3.5V15.5c0-1.6-0.6-2.8-2.2-2.8
		c-1.6,0-2.4,1.6-2.4,2.8v24.9h-3.5V9.9z"/>
	<path class="st0" d="M281.9,14.4c0-1.4-0.7-2.1-1.8-2.1c-1.4,0-1.8,1-1.8,2.2V18c0,0.9,0.4,1.7,1.3,3l4.4,6.1
		c0.8,1.2,1.2,2,1.2,3.4v5.1c0,3.3-1.8,5.1-5.2,5.1c-2.9,0-5.1-1.3-5.1-4.8v-5.3h3.5v4.7c0,1.4,0.2,2.6,1.7,2.6
		c1.4,0,1.7-1.2,1.7-2.6v-3.7c0-1.1-0.4-2.2-1.3-3.4l-4-5.4c-1-1.3-1.6-2.4-1.6-4.1v-3.9c0-3.4,2.3-5.3,5.4-5.3
		c3.7,0,4.9,2.5,4.9,4.4v5h-3.2V14.4z"/>
	<path class="st0" d="M288.5,5.8l3.5-1.3v5.4h2.5v2.8h-2.5v23.2c0,1.4,0.7,1.7,1.7,1.7h0.7v2.8h-1.7c-2.9,0-4.3-1.4-4.3-3.7V12.7
		h-1.7V9.9h1.7V5.8z"/>
	<path class="st0" d="M296.3,36.1h3.7v4.3h-3.7V36.1z"/>
</g>
<circle class="st0" cx="23" cy="31.1" r="1.1"/>
</svg>
